<svg id="Layer_1" data-name="Layer 1" xmlns="http://www.w3.org/2000/svg" viewBox="0 0 546.55 435.3"><defs><style>.cls-1{fill:#ef4623;}</style></defs><path class="cls-1" d="M582.76,431.21q-1.29-10.12-3.32-20.16a.14.14,0,0,1,0-.07,272.45,272.45,0,0,0-74.69-138.84c-107-107-280.43-106.93-387.44.08C20.52,369,11.23,520.1,89.45,627.24a110.83,110.83,0,0,1,24.22-120.38c43.27-43.27,100.56-45.48,143.81-2.22C268.66,515.81,285,536.77,309.22,561A160.74,160.74,0,0,0,582.76,431.21Zm-121-50.67c-8.56,1.72-15.09-2.7-22.61-5.33,7.15,11.73,11.37,24.44,8.25,36.94-5.75,23,8.62,37.34,11.49,46,3.31,9.93-10.16,16.5-17.24,23-6.25,5.72-17.24,0-31.6,2.87-43.1,8.62-81.08-21.31-106.3-54.59-26.84-35.42-101-48.15-132.16-28.73,6.67-18.24,23-46,51.72-68.95,56.75-45.4,139.94-36.65,186.29,8.8,2.05,2,4.23,4.16,6.48,6.45-.1-.31-.19-.6-.29-.88,14.37-14.37,42.54-.28,48.84,2.87q17.25,8.63,25.86,8.62C489.05,359.87,481.66,376.56,461.74,380.54Z" transform="translate(-37.01 -191.94)"/><path class="cls-1" d="M399.87,399.51a11.48,11.48,0,0,0-.26,16.23c4.41,4.41,10.35,3.49,14.9-1.06s9.73-10.5,5.32-14.91S404.43,395,399.87,399.51Z" transform="translate(-37.01 -191.94)"/></svg>